<?xml version="1.0" standalone="no"?>
<!DOCTYPE svg PUBLIC "-//W3C//DTD SVG 20010904//EN"
 "http://www.w3.org/TR/2001/REC-SVG-20010904/DTD/svg10.dtd">
<svg version="1.0" xmlns="http://www.w3.org/2000/svg"
 width="500.000000pt" height="500.000000pt" viewBox="0 0 500.000000 500.000000"
 preserveAspectRatio="xMidYMid meet">

<g transform="translate(0.000000,500.000000) scale(0.100000,-0.100000)"
fill="#fffff" stroke="none">
<path d="M1983 4250 c-27 -12 -96 -73 -191 -168 -124 -124 -161 -155 -222
-186 -72 -35 -74 -36 -194 -36 l-122 0 -12 44 c-14 55 -64 113 -117 137 -33
15 -67 19 -191 19 -138 0 -154 -2 -194 -23 -58 -30 -100 -84 -107 -136 l-6
-41 -51 0 c-207 0 -352 -84 -429 -248 l-32 -67 0 -1255 0 -1255 33 -68 c44
-89 114 -160 199 -200 l68 -32 2085 0 2085 0 68 32 c85 40 155 111 199 201
l33 67 0 1255 0 1255 -32 67 c-53 112 -137 188 -251 226 -40 14 -128 17 -582
22 l-535 5 -60 30 c-46 23 -96 66 -212 183 -99 100 -166 159 -195 172 -41 19
-68 20 -518 20 -447 0 -478 -2 -517 -20z m1112 -348 c136 -134 171 -163 235
-194 41 -20 95 -42 120 -48 27 -6 261 -13 576 -18 l531 -7 41 -29 c26 -18 51
-47 67 -79 l25 -51 0 -1185 c0 -1133 -1 -1188 -19 -1226 -23 -49 -64 -89 -113
-109 -33 -14 -254 -16 -2060 -16 -1948 0 -2024 1 -2063 19 -22 10 -52 31 -67
47 -61 66 -58 -9 -58 1287 l0 1183 25 51 c16 32 41 61 67 79 l41 29 531 7
c315 5 549 12 576 18 25 6 79 28 120 48 64 31 99 60 235 194 l160 157 435 1
435 0 160 -158z"/>
<path d="M583 3430 c-48 -20 -63 -65 -63 -193 0 -213 5 -217 314 -217 118 0
226 4 239 9 14 6 35 20 46 32 19 21 21 34 21 168 0 156 -5 174 -57 200 -26 13
-467 14 -500 1z"/>
<path d="M2320 3425 c-215 -34 -405 -128 -601 -296 -140 -121 -273 -344 -325
-545 -32 -122 -43 -336 -25 -465 14 -97 66 -259 112 -351 82 -164 230 -325
400 -437 373 -246 865 -246 1238 0 336 222 521 561 521 959 0 200 -39 359
-131 540 -82 160 -187 278 -361 402 -234 168 -537 239 -828 193z m412 -229
c234 -59 415 -188 551 -393 110 -166 152 -308 151 -518 -1 -164 -20 -249 -84
-384 -126 -262 -326 -432 -605 -513 -69 -20 -102 -23 -245 -23 -194 0 -262 15
-425 95 -118 57 -197 119 -281 218 -106 127 -173 258 -211 408 -26 104 -23
313 5 426 67 269 264 512 505 623 204 94 424 116 639 61z"/>
<path d="M2373 2795 c-183 -50 -331 -196 -378 -376 -48 -179 17 -391 158 -514
88 -76 237 -135 347 -135 19 0 66 7 103 15 244 51 417 262 417 504 0 139 -46
254 -141 356 -127 135 -333 196 -506 150z m227 -207 c126 -39 220 -182 207
-318 -15 -167 -145 -290 -307 -290 -121 0 -226 67 -279 180 -36 76 -37 192 -1
265 71 146 223 211 380 163z"/>
</g>
</svg>
